# Blender v2.78 (sub 0) OBJ File: ''
# www.blender.org
o Cube.001
v 0.250000 0.247642 2.187150
v 0.350000 -0.002358 2.187150
v 0.350000 -0.002357 -2.762850
v 0.250000 0.247643 -2.762850
v -0.250000 0.247642 2.187150
v -0.350000 -0.002358 2.187150
v 0.000000 -0.002358 5.487150
v 0.000000 0.347642 2.187150
v 0.250000 -0.252358 2.187150
v -0.250000 -0.252358 2.187150
v 0.000000 -0.352358 2.187150
v -0.350000 -0.002357 -2.762850
v -0.250000 0.247643 -2.762850
v -0.450000 0.497643 -2.874615
v -0.650000 -0.002357 -2.874615
v 0.000000 0.347643 -2.762850
v -0.250000 -0.252357 -2.762850
v 0.000000 -0.352357 -2.762850
v 0.250000 -0.252357 -2.762850
v 0.000000 0.647643 -2.874615
v 0.000000 0.647643 -3.074615
v -0.450000 0.497643 -3.074615
v -0.450000 -0.452357 -2.874615
v 0.000000 -0.652357 -2.874615
v 0.450000 -0.452357 -2.874615
v 0.650000 -0.002357 -2.874615
v 0.450000 0.497643 -2.874615
v -0.650000 -0.002357 -3.074615
v -0.450000 -0.452357 -3.074615
v 0.450000 0.497643 -3.074615
v 0.000000 -0.652357 -3.074615
v 0.450000 -0.452357 -3.074615
v 0.650000 -0.002357 -3.074615
vn 0.9285 0.3714 0.0000
vn -0.9240 0.3696 0.0980
vn 0.3696 0.9240 0.0980
vn 0.9240 -0.3696 0.0980
vn -0.3696 -0.9240 0.0980
vn 0.9240 0.3696 0.0980
vn -0.3696 0.9240 0.0980
vn -0.9240 -0.3696 0.0980
vn 0.3696 -0.9240 0.0980
vn -0.3458 0.1383 0.9281
vn -0.3714 0.9285 0.0000
vn -0.9285 -0.3714 -0.0000
vn 0.3714 0.9285 0.0000
vn -0.3714 -0.9285 -0.0000
vn -0.9285 0.3714 0.0000
vn 0.9285 -0.3714 -0.0000
vn 0.3714 -0.9285 -0.0000
vn -0.3162 0.9487 0.0000
vn -0.1511 -0.3525 0.9236
vn 0.3525 -0.1511 0.9236
vn 0.1511 -0.3525 0.9236
vn 0.3458 0.1383 0.9281
vn -0.1200 0.3360 0.9342
vn -0.3525 -0.1511 0.9236
vn 0.1200 0.3360 0.9342
vn -0.9138 -0.4061 -0.0000
vn 0.3162 0.9487 0.0000
vn -0.4061 -0.9138 0.0000
vn 0.9138 -0.4061 -0.0000
vn 0.4061 -0.9138 0.0000
vn 0.0000 0.0000 -1.0000
s off
f 1//1 2//1 3//1 4//1
f 5//2 6//2 7//2
f 1//3 8//3 7//3
f 9//4 2//4 7//4
f 10//5 11//5 7//5
f 7//6 2//6 1//6
f 7//7 8//7 5//7
f 7//8 6//8 10//8
f 7//9 11//9 9//9
f 12//10 13//10 14//10 15//10
f 5//11 8//11 16//11 13//11
f 10//12 6//12 12//12 17//12
f 8//13 1//13 4//13 16//13
f 11//14 10//14 17//14 18//14
f 6//15 5//15 13//15 12//15
f 2//16 9//16 19//16 3//16
f 9//17 11//17 18//17 19//17
f 14//18 20//18 21//18 22//18
f 18//19 17//19 23//19 24//19
f 3//20 19//20 25//20 26//20
f 19//21 18//21 24//21 25//21
f 4//22 3//22 26//22 27//22
f 13//23 16//23 20//23 14//23
f 17//24 12//24 15//24 23//24
f 16//25 4//25 27//25 20//25
f 23//26 15//26 28//26 29//26
f 20//27 27//27 30//27 21//27
f 15//15 14//15 22//15 28//15
f 24//28 23//28 29//28 31//28
f 26//29 25//29 32//29 33//29
f 25//30 24//30 31//30 32//30
f 27//1 26//1 33//1 30//1
f 22//31 21//31 30//31 33//31 32//31 31//31 29//31 28//31
